<?xml version="1.0" encoding="UTF-8" standalone="no"?>
<!DOCTYPE svg PUBLIC "-//W3C//DTD SVG 1.1//EN"
 "http://www.w3.org/Graphics/SVG/1.1/DTD/svg11.dtd">
<!-- Generated by graphviz version 5.0.0 (20220707.1540)
 -->
<!-- Title: G Pages: 1 -->
<svg width="697pt" height="1110pt"
 viewBox="0.00 0.00 697.00 1109.60" xmlns="http://www.w3.org/2000/svg" xmlns:xlink="http://www.w3.org/1999/xlink">
<g id="graph0" class="graph" transform="scale(1 1) rotate(0) translate(4 1105.6)">
<title>G</title>
<polygon fill="white" stroke="transparent" points="-4,4 -4,-1105.6 693,-1105.6 693,4 -4,4"/>
<!-- 0 -->
<g id="node1" class="node">
<title>0</title>
<ellipse fill="white" stroke="black" cx="132" cy="-1083.6" rx="27" ry="18"/>
<text text-anchor="middle" x="132" y="-1079.4" font-family="Times,serif" font-size="14.00">0</text>
</g>
<!-- 1 -->
<g id="node2" class="node">
<title>1</title>
<ellipse fill="red" stroke="black" cx="460" cy="-994.8" rx="27" ry="18"/>
<text text-anchor="middle" x="460" y="-990.6" font-family="Times,serif" font-size="14.00">1</text>
</g>
<!-- 0&#45;&gt;1 -->
<g id="edge1" class="edge">
<title>0&#45;&gt;1</title>
<path fill="none" stroke="black" d="M156.65,-1076.08C214.35,-1060.81 358.32,-1022.71 425.04,-1005.05"/>
<polygon fill="black" stroke="black" points="426.29,-1008.34 435.06,-1002.4 424.5,-1001.57 426.29,-1008.34"/>
<text text-anchor="middle" x="328.11" y="-1035" font-family="Times,serif" font-size="14.00">a</text>
</g>
<!-- 2 -->
<g id="node3" class="node">
<title>2</title>
<ellipse fill="red" stroke="black" cx="223" cy="-906" rx="27" ry="18"/>
<text text-anchor="middle" x="223" y="-901.8" font-family="Times,serif" font-size="14.00">2</text>
</g>
<!-- 0&#45;&gt;2 -->
<g id="edge2" class="edge">
<title>0&#45;&gt;2</title>
<path fill="none" stroke="black" d="M140.4,-1066.39C156.31,-1035.69 190.96,-968.82 209.94,-932.21"/>
<polygon fill="black" stroke="black" points="213.13,-933.66 214.62,-923.17 206.91,-930.43 213.13,-933.66"/>
<text text-anchor="middle" x="190.5" y="-990.6" font-family="Times,serif" font-size="14.00">b</text>
</g>
<!-- 3 -->
<g id="node4" class="node">
<title>3</title>
<ellipse fill="red" stroke="black" cx="203" cy="-18" rx="27" ry="18"/>
<text text-anchor="middle" x="203" y="-13.8" font-family="Times,serif" font-size="14.00">3</text>
</g>
<!-- 0&#45;&gt;3 -->
<g id="edge3" class="edge">
<title>0&#45;&gt;3</title>
<path fill="none" stroke="black" d="M106.24,-1077.77C67.82,-1068.9 0,-1046.13 0,-995.8 0,-995.8 0,-995.8 0,-105.8 0,-34.57 106.98,-21.01 165.62,-18.93"/>
<polygon fill="black" stroke="black" points="165.72,-22.43 175.62,-18.67 165.53,-15.44 165.72,-22.43"/>
<text text-anchor="middle" x="3.11" y="-546.6" font-family="Times,serif" font-size="14.00">c</text>
</g>
<!-- 4 -->
<g id="node5" class="node">
<title>4</title>
<ellipse fill="white" stroke="black" cx="279" cy="-639.6" rx="27" ry="18"/>
<text text-anchor="middle" x="279" y="-635.4" font-family="Times,serif" font-size="14.00">4</text>
</g>
<!-- 0&#45;&gt;4 -->
<g id="edge4" class="edge">
<title>0&#45;&gt;4</title>
<path fill="none" stroke="black" d="M110.3,-1072.48C84.82,-1058.93 46,-1032.29 46,-995.8 46,-995.8 46,-995.8 46,-860.6 46,-751.59 182.5,-680.57 246.54,-653.24"/>
<polygon fill="black" stroke="black" points="247.92,-656.46 255.81,-649.38 245.23,-650 247.92,-656.46"/>
<text text-anchor="middle" x="49.11" y="-857.4" font-family="Times,serif" font-size="14.00">a</text>
</g>
<!-- 11 -->
<g id="node6" class="node">
<title>11</title>
<ellipse fill="red" stroke="black" cx="457" cy="-728.4" rx="27" ry="18"/>
<text text-anchor="middle" x="457" y="-724.2" font-family="Times,serif" font-size="14.00">11</text>
</g>
<!-- 0&#45;&gt;11 -->
<g id="edge5" class="edge">
<title>0&#45;&gt;11</title>
<path fill="none" stroke="black" d="M158.76,-1080.91C258.36,-1074 604.92,-1044.05 664,-958.8 719.81,-878.26 640.9,-819.68 560,-764.4 539.77,-750.57 513.58,-741.77 492.67,-736.45"/>
<polygon fill="black" stroke="black" points="493.42,-733.03 482.89,-734.11 491.8,-739.84 493.42,-733.03"/>
<text text-anchor="middle" x="685.5" y="-901.8" font-family="Times,serif" font-size="14.00">h</text>
</g>
<!-- 12 -->
<g id="node7" class="node">
<title>12</title>
<ellipse fill="red" stroke="black" cx="255" cy="-817.2" rx="27" ry="18"/>
<text text-anchor="middle" x="255" y="-813" font-family="Times,serif" font-size="14.00">12</text>
</g>
<!-- 0&#45;&gt;12 -->
<g id="edge6" class="edge">
<title>0&#45;&gt;12</title>
<path fill="none" stroke="black" d="M133.94,-1065.63C138.55,-1030.42 152.49,-947.73 187,-888 198.14,-868.72 215.8,-850.81 230.33,-837.96"/>
<polygon fill="black" stroke="black" points="232.71,-840.54 238.02,-831.37 228.15,-835.22 232.71,-840.54"/>
<text text-anchor="middle" x="164.94" y="-946.2" font-family="Times,serif" font-size="14.00">i</text>
</g>
<!-- 1&#45;&gt;1 -->
<g id="edge7" class="edge">
<title>1&#45;&gt;1</title>
<path fill="none" stroke="black" d="M484.53,-1002.92C495.51,-1003.69 505,-1000.99 505,-994.8 505,-990.64 500.72,-988.06 494.57,-987.04"/>
<polygon fill="black" stroke="black" points="494.65,-983.54 484.53,-986.68 494.4,-990.54 494.65,-983.54"/>
<text text-anchor="middle" x="508.11" y="-990.6" font-family="Times,serif" font-size="14.00">a</text>
</g>
<!-- 1&#45;&gt;2 -->
<g id="edge8" class="edge">
<title>1&#45;&gt;2</title>
<path fill="none" stroke="black" d="M433.22,-992.04C398.71,-988.94 337.51,-980.62 290,-958.8 273.45,-951.2 257.23,-938.83 244.9,-928.08"/>
<polygon fill="black" stroke="black" points="247.16,-925.41 237.39,-921.32 242.48,-930.61 247.16,-925.41"/>
<text text-anchor="middle" x="293.5" y="-946.2" font-family="Times,serif" font-size="14.00">b</text>
</g>
<!-- 1&#45;&gt;3 -->
<g id="edge9" class="edge">
<title>1&#45;&gt;3</title>
<path fill="none" stroke="black" d="M486.74,-991.49C510.78,-988.08 545.66,-979.64 568,-958.8 618.55,-911.63 620,-988.65 620,-685 620,-685 620,-685 620,-105.8 620,-28.58 342.44,-19.58 240.21,-18.89"/>
<polygon fill="black" stroke="black" points="240.05,-15.39 230.04,-18.85 240.02,-22.39 240.05,-15.39"/>
<text text-anchor="middle" x="623.11" y="-502.2" font-family="Times,serif" font-size="14.00">c</text>
</g>
<!-- 1&#45;&gt;4 -->
<g id="edge10" class="edge">
<title>1&#45;&gt;4</title>
<path fill="none" stroke="black" d="M461.87,-976.68C464.96,-941.53 468.24,-859.48 440,-799.2 410.41,-736.04 344.3,-684.13 306.64,-658.29"/>
<polygon fill="black" stroke="black" points="308.41,-655.27 298.16,-652.59 304.51,-661.08 308.41,-655.27"/>
<text text-anchor="middle" x="455.11" y="-813" font-family="Times,serif" font-size="14.00">a</text>
</g>
<!-- 1&#45;&gt;11 -->
<g id="edge11" class="edge">
<title>1&#45;&gt;11</title>
<path fill="none" stroke="black" d="M486.63,-991.37C507.72,-987.89 535.9,-979.42 550,-958.8 590.05,-900.25 557.03,-869.78 550,-799.2 548.44,-783.5 553.06,-776.55 543,-764.4 530.54,-749.35 510.6,-740.7 493.06,-735.77"/>
<polygon fill="black" stroke="black" points="493.63,-732.31 483.08,-733.28 491.93,-739.1 493.63,-732.31"/>
<text text-anchor="middle" x="567.5" y="-857.4" font-family="Times,serif" font-size="14.00">h</text>
</g>
<!-- 1&#45;&gt;12 -->
<g id="edge12" class="edge">
<title>1&#45;&gt;12</title>
<path fill="none" stroke="black" d="M447.48,-978.34C424.55,-950.71 373.34,-892.11 321,-853.2 310.35,-845.28 297.66,-838.1 286.28,-832.33"/>
<polygon fill="black" stroke="black" points="287.61,-829.09 277.09,-827.83 284.53,-835.37 287.61,-829.09"/>
<text text-anchor="middle" x="399.94" y="-901.8" font-family="Times,serif" font-size="14.00">i</text>
</g>
<!-- 2&#45;&gt;1 -->
<g id="edge13" class="edge">
<title>2&#45;&gt;1</title>
<path fill="none" stroke="black" d="M228.13,-924.15C232.52,-935.78 240.02,-950.49 251.79,-958.8 278.74,-977.85 370.82,-987.42 423.05,-991.42"/>
<polygon fill="black" stroke="black" points="423.01,-994.92 433.24,-992.17 423.53,-987.94 423.01,-994.92"/>
<text text-anchor="middle" x="254.11" y="-946.2" font-family="Times,serif" font-size="14.00">a</text>
</g>
<!-- 2&#45;&gt;2 -->
<g id="edge14" class="edge">
<title>2&#45;&gt;2</title>
<path fill="none" stroke="black" d="M247.53,-914.12C258.51,-914.89 268,-912.19 268,-906 268,-901.84 263.72,-899.26 257.57,-898.24"/>
<polygon fill="black" stroke="black" points="257.65,-894.74 247.53,-897.88 257.4,-901.74 257.65,-894.74"/>
<text text-anchor="middle" x="271.5" y="-901.8" font-family="Times,serif" font-size="14.00">b</text>
</g>
<!-- 2&#45;&gt;3 -->
<g id="edge15" class="edge">
<title>2&#45;&gt;3</title>
<path fill="none" stroke="black" d="M206.15,-891.55C199.3,-885.48 191.67,-877.9 186,-870 176.08,-856.17 175.4,-851.34 170,-835.2 116.33,-674.64 89,-632.29 89,-463 89,-463 89,-463 89,-105.8 89,-65.16 135.43,-41.04 169.03,-28.91"/>
<polygon fill="black" stroke="black" points="170.21,-32.2 178.54,-25.66 167.95,-25.58 170.21,-32.2"/>
<text text-anchor="middle" x="93.11" y="-457.8" font-family="Times,serif" font-size="14.00">c</text>
</g>
<!-- 2&#45;&gt;4 -->
<g id="edge16" class="edge">
<title>2&#45;&gt;4</title>
<path fill="none" stroke="black" d="M211.41,-889.71C193.23,-863.77 161.67,-809.56 177.79,-764.4 193.02,-721.69 230.01,-683.09 254.8,-660.74"/>
<polygon fill="black" stroke="black" points="257.18,-663.3 262.38,-654.07 252.56,-658.05 257.18,-663.3"/>
<text text-anchor="middle" x="181.11" y="-768.6" font-family="Times,serif" font-size="14.00">a</text>
</g>
<!-- 2&#45;&gt;11 -->
<g id="edge17" class="edge">
<title>2&#45;&gt;11</title>
<path fill="none" stroke="black" d="M248.53,-899.95C279.81,-893.38 330.55,-881.41 346,-870 376.19,-847.71 368.9,-828.78 392,-799.2 405.29,-782.18 421.91,-764.39 435.01,-751.03"/>
<polygon fill="black" stroke="black" points="437.71,-753.28 442.27,-743.71 432.74,-748.34 437.71,-753.28"/>
<text text-anchor="middle" x="395.5" y="-813" font-family="Times,serif" font-size="14.00">h</text>
</g>
<!-- 2&#45;&gt;12 -->
<g id="edge18" class="edge">
<title>2&#45;&gt;12</title>
<path fill="none" stroke="black" d="M223.31,-887.68C224,-877.36 225.76,-864.17 230.11,-853.2 231.69,-849.22 233.81,-845.27 236.15,-841.53"/>
<polygon fill="black" stroke="black" points="239.04,-843.5 241.86,-833.28 233.29,-839.51 239.04,-843.5"/>
<text text-anchor="middle" x="231.94" y="-857.4" font-family="Times,serif" font-size="14.00">i</text>
</g>
<!-- 3&#45;&gt;1 -->
<g id="edge19" class="edge">
<title>3&#45;&gt;1</title>
<path fill="none" stroke="black" d="M230.07,-19.51C307.14,-21.27 526.45,-28.44 593,-54 628.8,-67.75 662,-67.45 662,-105.8 662,-729.4 662,-729.4 662,-729.4 662,-817.2 668.59,-846.15 628,-924 603.43,-971.12 538.6,-986.45 497.03,-991.43"/>
<polygon fill="black" stroke="black" points="496.58,-987.95 487,-992.48 497.31,-994.92 496.58,-987.95"/>
<text text-anchor="middle" x="665.11" y="-502.2" font-family="Times,serif" font-size="14.00">a</text>
</g>
<!-- 3&#45;&gt;2 -->
<g id="edge20" class="edge">
<title>3&#45;&gt;2</title>
<path fill="none" stroke="black" d="M176.37,-21.63C131.57,-27.68 46,-46.94 46,-105.8 46,-685 46,-685 46,-685 46,-778.88 145.05,-855.41 194.96,-888.02"/>
<polygon fill="black" stroke="black" points="193.07,-890.97 203.38,-893.41 196.85,-885.07 193.07,-890.97"/>
<text text-anchor="middle" x="49.5" y="-457.8" font-family="Times,serif" font-size="14.00">b</text>
</g>
<!-- 3&#45;&gt;3 -->
<g id="edge21" class="edge">
<title>3&#45;&gt;3</title>
<path fill="none" stroke="black" d="M227.53,-26.12C238.51,-26.89 248,-24.19 248,-18 248,-13.84 243.72,-11.26 237.57,-10.24"/>
<polygon fill="black" stroke="black" points="237.65,-6.74 227.53,-9.88 237.4,-13.74 237.65,-6.74"/>
<text text-anchor="middle" x="251.11" y="-13.8" font-family="Times,serif" font-size="14.00">c</text>
</g>
<!-- 3&#45;&gt;4 -->
<g id="edge22" class="edge">
<title>3&#45;&gt;4</title>
<path fill="none" stroke="black" d="M203,-36.29C203,-53.81 203,-81.69 203,-105.8 203,-551.8 203,-551.8 203,-551.8 203,-581.73 228.89,-606.29 250.45,-621.55"/>
<polygon fill="black" stroke="black" points="248.78,-624.65 259.03,-627.32 252.68,-618.84 248.78,-624.65"/>
<text text-anchor="middle" x="206.11" y="-324.6" font-family="Times,serif" font-size="14.00">a</text>
</g>
<!-- 3&#45;&gt;11 -->
<g id="edge23" class="edge">
<title>3&#45;&gt;11</title>
<path fill="none" stroke="black" d="M229.89,-19.99C302.26,-22.95 497.04,-32.81 516,-54 547.92,-89.69 542.68,-637.5 512,-692.4 506.82,-701.66 498.06,-708.84 489.04,-714.21"/>
<polygon fill="black" stroke="black" points="487.23,-711.2 480.05,-718.99 490.52,-717.38 487.23,-711.2"/>
<text text-anchor="middle" x="540.5" y="-369" font-family="Times,serif" font-size="14.00">h</text>
</g>
<!-- 3&#45;&gt;12 -->
<g id="edge24" class="edge">
<title>3&#45;&gt;12</title>
<path fill="none" stroke="black" d="M191.6,-34.43C180.41,-51.13 165,-78.99 165,-105.8 165,-507.4 165,-507.4 165,-507.4 165,-514.69 224.83,-715.39 246.93,-789.25"/>
<polygon fill="black" stroke="black" points="243.68,-790.61 249.9,-799.19 250.39,-788.61 243.68,-790.61"/>
<text text-anchor="middle" x="166.94" y="-413.4" font-family="Times,serif" font-size="14.00">i</text>
</g>
<!-- 5 -->
<g id="node8" class="node">
<title>5</title>
<ellipse fill="white" stroke="black" cx="269" cy="-550.8" rx="27" ry="18"/>
<text text-anchor="middle" x="269" y="-546.6" font-family="Times,serif" font-size="14.00">5</text>
</g>
<!-- 4&#45;&gt;5 -->
<g id="edge25" class="edge">
<title>4&#45;&gt;5</title>
<path fill="none" stroke="black" d="M277.02,-621.45C275.63,-609.32 273.73,-592.82 272.12,-578.92"/>
<polygon fill="black" stroke="black" points="275.59,-578.45 270.97,-568.91 268.64,-579.25 275.59,-578.45"/>
<text text-anchor="middle" x="277.5" y="-591" font-family="Times,serif" font-size="14.00">b</text>
</g>
<!-- 11&#45;&gt;1 -->
<g id="edge38" class="edge">
<title>11&#45;&gt;1</title>
<path fill="none" stroke="black" d="M467.78,-745.29C471.4,-751.12 475.21,-757.89 478,-764.4 500.42,-816.78 504.38,-831.54 512,-888 516.21,-919.18 526.79,-931.02 512,-958.8 507.42,-967.41 499.67,-974.28 491.54,-979.57"/>
<polygon fill="black" stroke="black" points="489.59,-976.66 482.7,-984.7 493.1,-982.71 489.59,-976.66"/>
<text text-anchor="middle" x="512.11" y="-857.4" font-family="Times,serif" font-size="14.00">a</text>
</g>
<!-- 11&#45;&gt;2 -->
<g id="edge39" class="edge">
<title>11&#45;&gt;2</title>
<path fill="none" stroke="black" d="M451.85,-746.5C441.58,-777.33 415.33,-841.63 368,-870 358.6,-875.63 298.24,-889.12 258.42,-897.61"/>
<polygon fill="black" stroke="black" points="257.59,-894.21 248.53,-899.7 259.04,-901.06 257.59,-894.21"/>
<text text-anchor="middle" x="432.5" y="-813" font-family="Times,serif" font-size="14.00">b</text>
</g>
<!-- 11&#45;&gt;3 -->
<g id="edge40" class="edge">
<title>11&#45;&gt;3</title>
<path fill="none" stroke="black" d="M464.1,-710.93C466.32,-705.17 468.56,-698.59 470,-692.4 502.12,-553.94 502,-516.34 502,-374.2 502,-374.2 502,-374.2 502,-105.8 502,-51.81 319.91,-29.22 239.93,-21.91"/>
<polygon fill="black" stroke="black" points="240.07,-18.41 229.8,-21.01 239.45,-25.38 240.07,-18.41"/>
<text text-anchor="middle" x="505.11" y="-369" font-family="Times,serif" font-size="14.00">c</text>
</g>
<!-- 11&#45;&gt;4 -->
<g id="edge41" class="edge">
<title>11&#45;&gt;4</title>
<path fill="none" stroke="black" d="M439.41,-714.73C423.22,-703.45 398.28,-687.03 375,-675.6 355.02,-665.79 331.57,-657.19 312.85,-650.97"/>
<polygon fill="black" stroke="black" points="313.85,-647.61 303.26,-647.85 311.69,-654.27 313.85,-647.61"/>
<text text-anchor="middle" x="405.11" y="-679.8" font-family="Times,serif" font-size="14.00">a</text>
</g>
<!-- 11&#45;&gt;11 -->
<g id="edge42" class="edge">
<title>11&#45;&gt;11</title>
<path fill="none" stroke="black" d="M481.53,-736.52C492.51,-737.29 502,-734.59 502,-728.4 502,-724.24 497.72,-721.66 491.57,-720.64"/>
<polygon fill="black" stroke="black" points="491.65,-717.14 481.53,-720.28 491.4,-724.14 491.65,-717.14"/>
<text text-anchor="middle" x="505.5" y="-724.2" font-family="Times,serif" font-size="14.00">h</text>
</g>
<!-- 11&#45;&gt;12 -->
<g id="edge43" class="edge">
<title>11&#45;&gt;12</title>
<path fill="none" stroke="black" d="M434.31,-738.41C416.95,-745.36 392.44,-755.3 371.11,-764.4 342.15,-776.75 309.42,-791.42 286.11,-801.99"/>
<polygon fill="black" stroke="black" points="284.39,-798.93 276.73,-806.25 287.29,-805.3 284.39,-798.93"/>
<text text-anchor="middle" x="372.94" y="-768.6" font-family="Times,serif" font-size="14.00">i</text>
</g>
<!-- 12&#45;&gt;1 -->
<g id="edge44" class="edge">
<title>12&#45;&gt;1</title>
<path fill="none" stroke="black" d="M267.4,-833.65C285.19,-855.28 319.59,-895.16 353.79,-924 378.14,-944.54 408.81,-964.11 430.92,-977.27"/>
<polygon fill="black" stroke="black" points="429.43,-980.46 439.83,-982.51 432.98,-974.42 429.43,-980.46"/>
<text text-anchor="middle" x="356.11" y="-901.8" font-family="Times,serif" font-size="14.00">a</text>
</g>
<!-- 12&#45;&gt;2 -->
<g id="edge45" class="edge">
<title>12&#45;&gt;2</title>
<path fill="none" stroke="black" d="M248.85,-834.88C244.29,-847.24 238,-864.32 232.76,-878.53"/>
<polygon fill="black" stroke="black" points="229.35,-877.67 229.17,-888.26 235.91,-880.09 229.35,-877.67"/>
<text text-anchor="middle" x="244.5" y="-857.4" font-family="Times,serif" font-size="14.00">b</text>
</g>
<!-- 12&#45;&gt;3 -->
<g id="edge46" class="edge">
<title>12&#45;&gt;3</title>
<path fill="none" stroke="black" d="M243.42,-800.75C211.91,-757.14 127,-628.4 127,-507.4 127,-507.4 127,-507.4 127,-105.8 127,-75.87 152.89,-51.31 174.45,-36.05"/>
<polygon fill="black" stroke="black" points="176.68,-38.76 183.03,-30.28 172.78,-32.95 176.68,-38.76"/>
<text text-anchor="middle" x="130.11" y="-413.4" font-family="Times,serif" font-size="14.00">c</text>
</g>
<!-- 12&#45;&gt;4 -->
<g id="edge47" class="edge">
<title>12&#45;&gt;4</title>
<path fill="none" stroke="black" d="M257.34,-799.04C261.53,-768.41 270.32,-704.1 275.32,-667.53"/>
<polygon fill="black" stroke="black" points="278.79,-667.95 276.68,-657.57 271.86,-667 278.79,-667.95"/>
<text text-anchor="middle" x="272.11" y="-724.2" font-family="Times,serif" font-size="14.00">a</text>
</g>
<!-- 12&#45;&gt;11 -->
<g id="edge48" class="edge">
<title>12&#45;&gt;11</title>
<path fill="none" stroke="black" d="M280.47,-810.75C304.32,-805.11 340.59,-795.17 370,-781.2 382.09,-775.45 383.61,-771.43 395,-764.4 405.58,-757.87 417.41,-751.08 427.88,-745.22"/>
<polygon fill="black" stroke="black" points="429.61,-748.27 436.67,-740.36 426.22,-742.14 429.61,-748.27"/>
<text text-anchor="middle" x="398.5" y="-768.6" font-family="Times,serif" font-size="14.00">h</text>
</g>
<!-- 12&#45;&gt;12 -->
<g id="edge49" class="edge">
<title>12&#45;&gt;12</title>
<path fill="none" stroke="black" d="M279.53,-825.32C290.51,-826.09 300,-823.39 300,-817.2 300,-813.04 295.72,-810.46 289.57,-809.44"/>
<polygon fill="black" stroke="black" points="289.65,-805.94 279.53,-809.08 289.4,-812.94 289.65,-805.94"/>
<text text-anchor="middle" x="301.94" y="-813" font-family="Times,serif" font-size="14.00">i</text>
</g>
<!-- 6 -->
<g id="node9" class="node">
<title>6</title>
<ellipse fill="white" stroke="black" cx="263" cy="-462" rx="27" ry="18"/>
<text text-anchor="middle" x="263" y="-457.8" font-family="Times,serif" font-size="14.00">6</text>
</g>
<!-- 5&#45;&gt;6 -->
<g id="edge26" class="edge">
<title>5&#45;&gt;6</title>
<path fill="none" stroke="black" d="M267.81,-532.65C266.98,-520.52 265.84,-504.02 264.87,-490.12"/>
<polygon fill="black" stroke="black" points="268.36,-489.85 264.18,-480.11 261.38,-490.33 268.36,-489.85"/>
<text text-anchor="middle" x="269.5" y="-502.2" font-family="Times,serif" font-size="14.00">d</text>
</g>
<!-- 7 -->
<g id="node10" class="node">
<title>7</title>
<ellipse fill="white" stroke="black" cx="258" cy="-373.2" rx="27" ry="18"/>
<text text-anchor="middle" x="258" y="-369" font-family="Times,serif" font-size="14.00">7</text>
</g>
<!-- 6&#45;&gt;7 -->
<g id="edge27" class="edge">
<title>6&#45;&gt;7</title>
<path fill="none" stroke="black" d="M262.01,-443.85C261.31,-431.72 260.36,-415.22 259.56,-401.32"/>
<polygon fill="black" stroke="black" points="263.06,-401.1 258.99,-391.31 256.07,-401.5 263.06,-401.1"/>
<text text-anchor="middle" x="263.5" y="-413.4" font-family="Times,serif" font-size="14.00">d</text>
</g>
<!-- 7&#45;&gt;7 -->
<g id="edge28" class="edge">
<title>7&#45;&gt;7</title>
<path fill="none" stroke="black" d="M282.53,-381.32C293.51,-382.09 303,-379.39 303,-373.2 303,-369.04 298.72,-366.46 292.57,-365.44"/>
<polygon fill="black" stroke="black" points="292.65,-361.94 282.53,-365.08 292.4,-368.94 292.65,-361.94"/>
<text text-anchor="middle" x="306.5" y="-369" font-family="Times,serif" font-size="14.00">d</text>
</g>
<!-- 8 -->
<g id="node11" class="node">
<title>8</title>
<ellipse fill="white" stroke="black" cx="265" cy="-284.4" rx="27" ry="18"/>
<text text-anchor="middle" x="265" y="-280.2" font-family="Times,serif" font-size="14.00">8</text>
</g>
<!-- 7&#45;&gt;8 -->
<g id="edge29" class="edge">
<title>7&#45;&gt;8</title>
<path fill="none" stroke="black" d="M259.38,-355.05C260.36,-342.92 261.69,-326.42 262.81,-312.52"/>
<polygon fill="black" stroke="black" points="266.3,-312.76 263.62,-302.51 259.33,-312.2 266.3,-312.76"/>
<text text-anchor="middle" x="265.11" y="-324.6" font-family="Times,serif" font-size="14.00">e</text>
</g>
<!-- 9 -->
<g id="node12" class="node">
<title>9</title>
<ellipse fill="white" stroke="black" cx="283" cy="-195.6" rx="27" ry="18"/>
<text text-anchor="middle" x="283" y="-191.4" font-family="Times,serif" font-size="14.00">9</text>
</g>
<!-- 8&#45;&gt;9 -->
<g id="edge30" class="edge">
<title>8&#45;&gt;9</title>
<path fill="none" stroke="black" d="M268.56,-266.25C271.07,-254.12 274.49,-237.62 277.38,-223.72"/>
<polygon fill="black" stroke="black" points="280.85,-224.22 279.45,-213.71 273.99,-222.79 280.85,-224.22"/>
<text text-anchor="middle" x="277.33" y="-235.8" font-family="Times,serif" font-size="14.00">f</text>
</g>
<!-- 10 -->
<g id="node13" class="node">
<title>10</title>
<ellipse fill="red" stroke="black" cx="380" cy="-106.8" rx="27" ry="18"/>
<text text-anchor="middle" x="380" y="-102.6" font-family="Times,serif" font-size="14.00">10</text>
</g>
<!-- 9&#45;&gt;10 -->
<g id="edge31" class="edge">
<title>9&#45;&gt;10</title>
<path fill="none" stroke="black" d="M292.51,-178.32C299.45,-167.38 309.6,-153.14 321,-142.8 329.42,-135.16 339.77,-128.35 349.44,-122.81"/>
<polygon fill="black" stroke="black" points="351.31,-125.78 358.41,-117.91 347.95,-119.64 351.31,-125.78"/>
<text text-anchor="middle" x="324.5" y="-147" font-family="Times,serif" font-size="14.00">g</text>
</g>
<!-- 10&#45;&gt;1 -->
<g id="edge32" class="edge">
<title>10&#45;&gt;1</title>
<path fill="none" stroke="black" d="M405.99,-112.12C460.55,-122.83 582,-155.99 582,-239 582,-729.4 582,-729.4 582,-729.4 582,-792.61 537.62,-795.42 512,-853.2 491.96,-898.4 495.62,-913 477,-958.8 475.73,-961.93 474.3,-965.17 472.84,-968.36"/>
<polygon fill="black" stroke="black" points="469.57,-967.09 468.41,-977.62 475.88,-970.11 469.57,-967.09"/>
<text text-anchor="middle" x="585.11" y="-546.6" font-family="Times,serif" font-size="14.00">a</text>
</g>
<!-- 10&#45;&gt;2 -->
<g id="edge33" class="edge">
<title>10&#45;&gt;2</title>
<path fill="none" stroke="black" d="M391.4,-123.23C402.59,-139.93 418,-167.79 418,-194.6 418,-640.6 418,-640.6 418,-640.6 418,-664.45 414.82,-671.15 404,-692.4 385.35,-729.02 367.73,-729.52 346,-764.4 327.64,-793.87 334.66,-808.07 313,-835.2 295.86,-856.68 270.8,-875.41 251.47,-888.05"/>
<polygon fill="black" stroke="black" points="249.34,-885.26 242.78,-893.58 253.09,-891.16 249.34,-885.26"/>
<text text-anchor="middle" x="421.5" y="-502.2" font-family="Times,serif" font-size="14.00">b</text>
</g>
<!-- 10&#45;&gt;3 -->
<g id="edge34" class="edge">
<title>10&#45;&gt;3</title>
<path fill="none" stroke="black" d="M358.65,-95.33C327.34,-79.97 268.81,-51.27 233.13,-33.78"/>
<polygon fill="black" stroke="black" points="234.67,-30.63 224.15,-29.37 231.59,-36.92 234.67,-30.63"/>
<text text-anchor="middle" x="310.11" y="-58.2" font-family="Times,serif" font-size="14.00">c</text>
</g>
<!-- 10&#45;&gt;4 -->
<g id="edge35" class="edge">
<title>10&#45;&gt;4</title>
<path fill="none" stroke="black" d="M372.48,-124.26C370.1,-130.02 367.66,-136.6 366,-142.8 316.58,-327.57 352.21,-383.45 305,-568.8 301.25,-583.53 295.46,-599.46 290.29,-612.37"/>
<polygon fill="black" stroke="black" points="286.9,-611.42 286.34,-622 293.37,-614.08 286.9,-611.42"/>
<text text-anchor="middle" x="337.11" y="-369" font-family="Times,serif" font-size="14.00">a</text>
</g>
<!-- 10&#45;&gt;11 -->
<g id="edge36" class="edge">
<title>10&#45;&gt;11</title>
<path fill="none" stroke="black" d="M401,-118.38C411.37,-124.41 423.46,-132.78 432,-142.8 448.46,-162.11 456,-169.23 456,-194.6 456,-640.6 456,-640.6 456,-640.6 456,-660.38 456.26,-682.69 456.52,-699.74"/>
<polygon fill="black" stroke="black" points="453.03,-700.17 456.68,-710.11 460.02,-700.05 453.03,-700.17"/>
<text text-anchor="middle" x="459.5" y="-413.4" font-family="Times,serif" font-size="14.00">h</text>
</g>
<!-- 10&#45;&gt;12 -->
<g id="edge37" class="edge">
<title>10&#45;&gt;12</title>
<path fill="none" stroke="black" d="M380,-125.09C380,-142.61 380,-170.49 380,-194.6 380,-418.6 380,-418.6 380,-418.6 380,-528.68 346.79,-552.21 315,-657.6 298.29,-713.01 297.01,-728.09 274,-781.2 272.58,-784.47 270.97,-787.84 269.29,-791.15"/>
<polygon fill="black" stroke="black" points="266.12,-789.65 264.51,-800.12 272.3,-792.94 266.12,-789.65"/>
<text text-anchor="middle" x="380.94" y="-457.8" font-family="Times,serif" font-size="14.00">i</text>
</g>
</g>
</svg>
