<?xml version="1.0" encoding="UTF-8" standalone="no"?>
<!DOCTYPE svg PUBLIC "-//W3C//DTD SVG 1.1//EN"
 "http://www.w3.org/Graphics/SVG/1.1/DTD/svg11.dtd">
<!-- Generated by graphviz version 5.0.0 (20220707.1540)
 -->
<!-- Title: G Pages: 1 -->
<svg width="278pt" height="310pt"
 viewBox="0.00 0.00 278.00 310.40" xmlns="http://www.w3.org/2000/svg" xmlns:xlink="http://www.w3.org/1999/xlink">
<g id="graph0" class="graph" transform="scale(1 1) rotate(0) translate(4 306.4)">
<title>G</title>
<polygon fill="white" stroke="transparent" points="-4,4 -4,-306.4 274,-306.4 274,4 -4,4"/>
<!-- 0 -->
<g id="node1" class="node">
<title>0</title>
<ellipse fill="white" stroke="black" cx="135" cy="-284.4" rx="27" ry="18"/>
<text text-anchor="middle" x="135" y="-280.2" font-family="Times,serif" font-size="14.00">0</text>
</g>
<!-- 1 -->
<g id="node2" class="node">
<title>1</title>
<ellipse fill="red" stroke="black" cx="27" cy="-195.6" rx="27" ry="18"/>
<text text-anchor="middle" x="27" y="-191.4" font-family="Times,serif" font-size="14.00">1</text>
</g>
<!-- 0&#45;&gt;1 -->
<g id="edge1" class="edge">
<title>0&#45;&gt;1</title>
<path fill="none" stroke="black" d="M118.12,-269.84C100.29,-255.51 71.99,-232.76 51.66,-216.42"/>
<polygon fill="black" stroke="black" points="53.74,-213.6 43.76,-210.07 49.36,-219.06 53.74,-213.6"/>
<text text-anchor="middle" x="94.11" y="-235.8" font-family="Times,serif" font-size="14.00">a</text>
</g>
<!-- 2 -->
<g id="node3" class="node">
<title>2</title>
<ellipse fill="red" stroke="black" cx="99" cy="-195.6" rx="27" ry="18"/>
<text text-anchor="middle" x="99" y="-191.4" font-family="Times,serif" font-size="14.00">2</text>
</g>
<!-- 0&#45;&gt;2 -->
<g id="edge2" class="edge">
<title>0&#45;&gt;2</title>
<path fill="none" stroke="black" d="M128.06,-266.66C122.88,-254.18 115.71,-236.88 109.78,-222.6"/>
<polygon fill="black" stroke="black" points="112.98,-221.18 105.92,-213.28 106.52,-223.86 112.98,-221.18"/>
<text text-anchor="middle" x="124.5" y="-235.8" font-family="Times,serif" font-size="14.00">b</text>
</g>
<!-- 3 -->
<g id="node4" class="node">
<title>3</title>
<ellipse fill="red" stroke="black" cx="171" cy="-195.6" rx="27" ry="18"/>
<text text-anchor="middle" x="171" y="-191.4" font-family="Times,serif" font-size="14.00">3</text>
</g>
<!-- 0&#45;&gt;3 -->
<g id="edge3" class="edge">
<title>0&#45;&gt;3</title>
<path fill="none" stroke="black" d="M141.94,-266.66C147.12,-254.18 154.29,-236.88 160.22,-222.6"/>
<polygon fill="black" stroke="black" points="163.48,-223.86 164.08,-213.28 157.02,-221.18 163.48,-223.86"/>
<text text-anchor="middle" x="160.11" y="-235.8" font-family="Times,serif" font-size="14.00">c</text>
</g>
<!-- 4 -->
<g id="node5" class="node">
<title>4</title>
<ellipse fill="white" stroke="black" cx="243" cy="-195.6" rx="27" ry="18"/>
<text text-anchor="middle" x="243" y="-191.4" font-family="Times,serif" font-size="14.00">4</text>
</g>
<!-- 0&#45;&gt;4 -->
<g id="edge4" class="edge">
<title>0&#45;&gt;4</title>
<path fill="none" stroke="black" d="M151.88,-269.84C169.71,-255.51 198.01,-232.76 218.34,-216.42"/>
<polygon fill="black" stroke="black" points="220.64,-219.06 226.24,-210.07 216.26,-213.6 220.64,-219.06"/>
<text text-anchor="middle" x="202.5" y="-235.8" font-family="Times,serif" font-size="14.00">g</text>
</g>
<!-- 5 -->
<g id="node6" class="node">
<title>5</title>
<ellipse fill="white" stroke="black" cx="201" cy="-106.8" rx="27" ry="18"/>
<text text-anchor="middle" x="201" y="-102.6" font-family="Times,serif" font-size="14.00">5</text>
</g>
<!-- 4&#45;&gt;5 -->
<g id="edge5" class="edge">
<title>4&#45;&gt;5</title>
<path fill="none" stroke="black" d="M235.1,-178.27C228.94,-165.54 220.28,-147.64 213.22,-133.06"/>
<polygon fill="black" stroke="black" points="216.37,-131.53 208.86,-124.05 210.07,-134.58 216.37,-131.53"/>
<text text-anchor="middle" x="228.33" y="-147" font-family="Times,serif" font-size="14.00">f</text>
</g>
<!-- 6 -->
<g id="node7" class="node">
<title>6</title>
<ellipse fill="red" stroke="black" cx="232" cy="-18" rx="27" ry="18"/>
<text text-anchor="middle" x="232" y="-13.8" font-family="Times,serif" font-size="14.00">6</text>
</g>
<!-- 5&#45;&gt;6 -->
<g id="edge6" class="edge">
<title>5&#45;&gt;6</title>
<path fill="none" stroke="black" d="M206.98,-89.06C211.39,-76.7 217.5,-59.61 222.57,-45.41"/>
<polygon fill="black" stroke="black" points="225.97,-46.28 226.04,-35.68 219.38,-43.92 225.97,-46.28"/>
<text text-anchor="middle" x="223.11" y="-58.2" font-family="Times,serif" font-size="14.00">e</text>
</g>
<!-- 6&#45;&gt;4 -->
<g id="edge7" class="edge">
<title>6&#45;&gt;4</title>
<path fill="none" stroke="black" d="M233.3,-36.21C234.36,-50.33 235.85,-70.86 237,-88.8 238.71,-115.5 240.42,-146.01 241.57,-167.38"/>
<polygon fill="black" stroke="black" points="238.07,-167.57 242.1,-177.37 245.06,-167.2 238.07,-167.57"/>
<text text-anchor="middle" x="243.5" y="-102.6" font-family="Times,serif" font-size="14.00">g</text>
</g>
</g>
</svg>
