<?xml version="1.0" encoding="UTF-8" standalone="no"?>
<!DOCTYPE svg PUBLIC "-//W3C//DTD SVG 1.1//EN"
 "http://www.w3.org/Graphics/SVG/1.1/DTD/svg11.dtd">
<!-- Generated by graphviz version 5.0.0 (20220707.1540)
 -->
<!-- Title: G Pages: 1 -->
<svg width="242pt" height="476pt"
 viewBox="0.00 0.00 242.00 476.00" xmlns="http://www.w3.org/2000/svg" xmlns:xlink="http://www.w3.org/1999/xlink">
<g id="graph0" class="graph" transform="scale(1 1) rotate(0) translate(4 472)">
<title>G</title>
<polygon fill="white" stroke="transparent" points="-4,4 -4,-472 238,-472 238,4 -4,4"/>
<!-- 94701407679168 -->
<g id="node1" class="node">
<title>94701407679168</title>
<ellipse fill="red" stroke="black" cx="63" cy="-450" rx="27" ry="18"/>
<text text-anchor="middle" x="63" y="-445.8" font-family="Times,serif" font-size="14.00">+</text>
</g>
<!-- 94701407679136 -->
<g id="node2" class="node">
<title>94701407679136</title>
<ellipse fill="white" stroke="black" cx="27" cy="-378" rx="27" ry="18"/>
<text text-anchor="middle" x="27" y="-373.8" font-family="Times,serif" font-size="14.00">a</text>
</g>
<!-- 94701407679168&#45;&gt;94701407679136 -->
<g id="edge1" class="edge">
<title>94701407679168&#45;&gt;94701407679136</title>
<path fill="none" stroke="black" d="M54.65,-432.76C50.29,-424.28 44.85,-413.71 39.96,-404.2"/>
<polygon fill="black" stroke="black" points="42.99,-402.44 35.3,-395.15 36.77,-405.64 42.99,-402.44"/>
</g>
<!-- 94701407679232 -->
<g id="node3" class="node">
<title>94701407679232</title>
<ellipse fill="red" stroke="black" cx="99" cy="-378" rx="27" ry="18"/>
<text text-anchor="middle" x="99" y="-373.8" font-family="Times,serif" font-size="14.00">+</text>
</g>
<!-- 94701407679168&#45;&gt;94701407679232 -->
<g id="edge11" class="edge">
<title>94701407679168&#45;&gt;94701407679232</title>
<path fill="none" stroke="black" d="M71.35,-432.76C75.71,-424.28 81.15,-413.71 86.04,-404.2"/>
<polygon fill="black" stroke="black" points="89.23,-405.64 90.7,-395.15 83.01,-402.44 89.23,-405.64"/>
</g>
<!-- 94701407679200 -->
<g id="node4" class="node">
<title>94701407679200</title>
<ellipse fill="white" stroke="black" cx="63" cy="-306" rx="27" ry="18"/>
<text text-anchor="middle" x="63" y="-301.8" font-family="Times,serif" font-size="14.00">b</text>
</g>
<!-- 94701407679232&#45;&gt;94701407679200 -->
<g id="edge2" class="edge">
<title>94701407679232&#45;&gt;94701407679200</title>
<path fill="none" stroke="black" d="M90.65,-360.76C86.29,-352.28 80.85,-341.71 75.96,-332.2"/>
<polygon fill="black" stroke="black" points="78.99,-330.44 71.3,-323.15 72.77,-333.64 78.99,-330.44"/>
</g>
<!-- 94701407679296 -->
<g id="node5" class="node">
<title>94701407679296</title>
<ellipse fill="red" stroke="black" cx="135" cy="-306" rx="27" ry="18"/>
<text text-anchor="middle" x="135" y="-301.8" font-family="Times,serif" font-size="14.00">+</text>
</g>
<!-- 94701407679232&#45;&gt;94701407679296 -->
<g id="edge10" class="edge">
<title>94701407679232&#45;&gt;94701407679296</title>
<path fill="none" stroke="black" d="M107.35,-360.76C111.71,-352.28 117.15,-341.71 122.04,-332.2"/>
<polygon fill="black" stroke="black" points="125.23,-333.64 126.7,-323.15 119.01,-330.44 125.23,-333.64"/>
</g>
<!-- 94701407679264 -->
<g id="node6" class="node">
<title>94701407679264</title>
<ellipse fill="white" stroke="black" cx="99" cy="-234" rx="27" ry="18"/>
<text text-anchor="middle" x="99" y="-229.8" font-family="Times,serif" font-size="14.00">c</text>
</g>
<!-- 94701407679296&#45;&gt;94701407679264 -->
<g id="edge3" class="edge">
<title>94701407679296&#45;&gt;94701407679264</title>
<path fill="none" stroke="black" d="M126.65,-288.76C122.29,-280.28 116.85,-269.71 111.96,-260.2"/>
<polygon fill="black" stroke="black" points="114.99,-258.44 107.3,-251.15 108.77,-261.64 114.99,-258.44"/>
</g>
<!-- 94701407679488 -->
<g id="node7" class="node">
<title>94701407679488</title>
<ellipse fill="red" stroke="black" cx="171" cy="-234" rx="27" ry="18"/>
<text text-anchor="middle" x="171" y="-229.8" font-family="Times,serif" font-size="14.00">*</text>
</g>
<!-- 94701407679296&#45;&gt;94701407679488 -->
<g id="edge9" class="edge">
<title>94701407679296&#45;&gt;94701407679488</title>
<path fill="none" stroke="black" d="M143.35,-288.76C147.71,-280.28 153.15,-269.71 158.04,-260.2"/>
<polygon fill="black" stroke="black" points="161.23,-261.64 162.7,-251.15 155.01,-258.44 161.23,-261.64"/>
</g>
<!-- 94701407679424 -->
<g id="node8" class="node">
<title>94701407679424</title>
<ellipse fill="red" stroke="black" cx="171" cy="-162" rx="27" ry="18"/>
<text text-anchor="middle" x="171" y="-157.8" font-family="Times,serif" font-size="14.00">~</text>
</g>
<!-- 94701407679488&#45;&gt;94701407679424 -->
<g id="edge8" class="edge">
<title>94701407679488&#45;&gt;94701407679424</title>
<path fill="none" stroke="black" d="M171,-215.7C171,-207.98 171,-198.71 171,-190.11"/>
<polygon fill="black" stroke="black" points="174.5,-190.1 171,-180.1 167.5,-190.1 174.5,-190.1"/>
</g>
<!-- 94701407679360 -->
<g id="node9" class="node">
<title>94701407679360</title>
<ellipse fill="red" stroke="black" cx="135" cy="-90" rx="27" ry="18"/>
<text text-anchor="middle" x="135" y="-85.8" font-family="Times,serif" font-size="14.00">~</text>
</g>
<!-- 94701407679424&#45;&gt;94701407679360 -->
<g id="edge6" class="edge">
<title>94701407679424&#45;&gt;94701407679360</title>
<path fill="none" stroke="black" d="M162.65,-144.76C158.29,-136.28 152.85,-125.71 147.96,-116.2"/>
<polygon fill="black" stroke="black" points="150.99,-114.44 143.3,-107.15 144.77,-117.64 150.99,-114.44"/>
</g>
<!-- 94701407679456 -->
<g id="node12" class="node">
<title>94701407679456</title>
<ellipse fill="white" stroke="black" cx="207" cy="-90" rx="27" ry="18"/>
<text text-anchor="middle" x="207" y="-85.8" font-family="Times,serif" font-size="14.00">e</text>
</g>
<!-- 94701407679424&#45;&gt;94701407679456 -->
<g id="edge7" class="edge">
<title>94701407679424&#45;&gt;94701407679456</title>
<path fill="none" stroke="black" d="M179.35,-144.76C183.71,-136.28 189.15,-125.71 194.04,-116.2"/>
<polygon fill="black" stroke="black" points="197.23,-117.64 198.7,-107.15 191.01,-114.44 197.23,-117.64"/>
</g>
<!-- 94701407679328 -->
<g id="node10" class="node">
<title>94701407679328</title>
<ellipse fill="white" stroke="black" cx="99" cy="-18" rx="27" ry="18"/>
<text text-anchor="middle" x="99" y="-13.8" font-family="Times,serif" font-size="14.00">g</text>
</g>
<!-- 94701407679360&#45;&gt;94701407679328 -->
<g id="edge4" class="edge">
<title>94701407679360&#45;&gt;94701407679328</title>
<path fill="none" stroke="black" d="M126.65,-72.76C122.29,-64.28 116.85,-53.71 111.96,-44.2"/>
<polygon fill="black" stroke="black" points="114.99,-42.44 107.3,-35.15 108.77,-45.64 114.99,-42.44"/>
</g>
<!-- 94701407679392 -->
<g id="node11" class="node">
<title>94701407679392</title>
<ellipse fill="white" stroke="black" cx="171" cy="-18" rx="27" ry="18"/>
<text text-anchor="middle" x="171" y="-13.8" font-family="Times,serif" font-size="14.00">f</text>
</g>
<!-- 94701407679360&#45;&gt;94701407679392 -->
<g id="edge5" class="edge">
<title>94701407679360&#45;&gt;94701407679392</title>
<path fill="none" stroke="black" d="M143.35,-72.76C147.71,-64.28 153.15,-53.71 158.04,-44.2"/>
<polygon fill="black" stroke="black" points="161.23,-45.64 162.7,-35.15 155.01,-42.44 161.23,-45.64"/>
</g>
</g>
</svg>
