<?xml version="1.0" encoding="UTF-8" standalone="no"?>
<!DOCTYPE svg PUBLIC "-//W3C//DTD SVG 1.1//EN"
 "http://www.w3.org/Graphics/SVG/1.1/DTD/svg11.dtd">
<!-- Generated by graphviz version 5.0.0 (20220707.1540)
 -->
<!-- Title: G Pages: 1 -->
<svg width="494pt" height="836pt"
 viewBox="0.00 0.00 494.00 836.00" xmlns="http://www.w3.org/2000/svg" xmlns:xlink="http://www.w3.org/1999/xlink">
<g id="graph0" class="graph" transform="scale(1 1) rotate(0) translate(4 832)">
<title>G</title>
<polygon fill="white" stroke="transparent" points="-4,4 -4,-832 490,-832 490,4 -4,4"/>
<!-- 94460321125792 -->
<g id="node1" class="node">
<title>94460321125792</title>
<ellipse fill="red" stroke="black" cx="243" cy="-810" rx="27" ry="18"/>
<text text-anchor="middle" x="243" y="-805.8" font-family="Times,serif" font-size="14.00">*</text>
</g>
<!-- 94460321125056 -->
<g id="node2" class="node">
<title>94460321125056</title>
<ellipse fill="red" stroke="black" cx="243" cy="-738" rx="27" ry="18"/>
<text text-anchor="middle" x="243" y="-733.8" font-family="Times,serif" font-size="14.00">+</text>
</g>
<!-- 94460321125792&#45;&gt;94460321125056 -->
<g id="edge24" class="edge">
<title>94460321125792&#45;&gt;94460321125056</title>
<path fill="none" stroke="black" d="M243,-791.7C243,-783.98 243,-774.71 243,-766.11"/>
<polygon fill="black" stroke="black" points="246.5,-766.1 243,-756.1 239.5,-766.1 246.5,-766.1"/>
</g>
<!-- 94460321125024 -->
<g id="node3" class="node">
<title>94460321125024</title>
<ellipse fill="white" stroke="black" cx="207" cy="-666" rx="27" ry="18"/>
<text text-anchor="middle" x="207" y="-661.8" font-family="Times,serif" font-size="14.00">a</text>
</g>
<!-- 94460321125056&#45;&gt;94460321125024 -->
<g id="edge1" class="edge">
<title>94460321125056&#45;&gt;94460321125024</title>
<path fill="none" stroke="black" d="M234.65,-720.76C230.29,-712.28 224.85,-701.71 219.96,-692.2"/>
<polygon fill="black" stroke="black" points="222.99,-690.44 215.3,-683.15 216.77,-693.64 222.99,-690.44"/>
</g>
<!-- 94460321125120 -->
<g id="node4" class="node">
<title>94460321125120</title>
<ellipse fill="red" stroke="black" cx="279" cy="-666" rx="27" ry="18"/>
<text text-anchor="middle" x="279" y="-661.8" font-family="Times,serif" font-size="14.00">+</text>
</g>
<!-- 94460321125056&#45;&gt;94460321125120 -->
<g id="edge23" class="edge">
<title>94460321125056&#45;&gt;94460321125120</title>
<path fill="none" stroke="black" d="M251.35,-720.76C255.71,-712.28 261.15,-701.71 266.04,-692.2"/>
<polygon fill="black" stroke="black" points="269.23,-693.64 270.7,-683.15 263.01,-690.44 269.23,-693.64"/>
</g>
<!-- 94460321125088 -->
<g id="node5" class="node">
<title>94460321125088</title>
<ellipse fill="white" stroke="black" cx="243" cy="-594" rx="27" ry="18"/>
<text text-anchor="middle" x="243" y="-589.8" font-family="Times,serif" font-size="14.00">b</text>
</g>
<!-- 94460321125120&#45;&gt;94460321125088 -->
<g id="edge2" class="edge">
<title>94460321125120&#45;&gt;94460321125088</title>
<path fill="none" stroke="black" d="M270.65,-648.76C266.29,-640.28 260.85,-629.71 255.96,-620.2"/>
<polygon fill="black" stroke="black" points="258.99,-618.44 251.3,-611.15 252.77,-621.64 258.99,-618.44"/>
</g>
<!-- 94460321125184 -->
<g id="node6" class="node">
<title>94460321125184</title>
<ellipse fill="red" stroke="black" cx="315" cy="-594" rx="27" ry="18"/>
<text text-anchor="middle" x="315" y="-589.8" font-family="Times,serif" font-size="14.00">+</text>
</g>
<!-- 94460321125120&#45;&gt;94460321125184 -->
<g id="edge22" class="edge">
<title>94460321125120&#45;&gt;94460321125184</title>
<path fill="none" stroke="black" d="M287.35,-648.76C291.71,-640.28 297.15,-629.71 302.04,-620.2"/>
<polygon fill="black" stroke="black" points="305.23,-621.64 306.7,-611.15 299.01,-618.44 305.23,-621.64"/>
</g>
<!-- 94460321125152 -->
<g id="node7" class="node">
<title>94460321125152</title>
<ellipse fill="white" stroke="black" cx="279" cy="-522" rx="27" ry="18"/>
<text text-anchor="middle" x="279" y="-517.8" font-family="Times,serif" font-size="14.00">c</text>
</g>
<!-- 94460321125184&#45;&gt;94460321125152 -->
<g id="edge3" class="edge">
<title>94460321125184&#45;&gt;94460321125152</title>
<path fill="none" stroke="black" d="M306.65,-576.76C302.29,-568.28 296.85,-557.71 291.96,-548.2"/>
<polygon fill="black" stroke="black" points="294.99,-546.44 287.3,-539.15 288.77,-549.64 294.99,-546.44"/>
</g>
<!-- 94460321125664 -->
<g id="node8" class="node">
<title>94460321125664</title>
<ellipse fill="red" stroke="black" cx="351" cy="-522" rx="27" ry="18"/>
<text text-anchor="middle" x="351" y="-517.8" font-family="Times,serif" font-size="14.00">+</text>
</g>
<!-- 94460321125184&#45;&gt;94460321125664 -->
<g id="edge21" class="edge">
<title>94460321125184&#45;&gt;94460321125664</title>
<path fill="none" stroke="black" d="M323.35,-576.76C327.71,-568.28 333.15,-557.71 338.04,-548.2"/>
<polygon fill="black" stroke="black" points="341.23,-549.64 342.7,-539.15 335.01,-546.44 341.23,-549.64"/>
</g>
<!-- 94460321125600 -->
<g id="node9" class="node">
<title>94460321125600</title>
<ellipse fill="red" stroke="black" cx="315" cy="-450" rx="27" ry="18"/>
<text text-anchor="middle" x="315" y="-445.8" font-family="Times,serif" font-size="14.00">~</text>
</g>
<!-- 94460321125664&#45;&gt;94460321125600 -->
<g id="edge17" class="edge">
<title>94460321125664&#45;&gt;94460321125600</title>
<path fill="none" stroke="black" d="M342.65,-504.76C338.29,-496.28 332.85,-485.71 327.96,-476.2"/>
<polygon fill="black" stroke="black" points="330.99,-474.44 323.3,-467.15 324.77,-477.64 330.99,-474.44"/>
</g>
<!-- 94460321125728 -->
<g id="node23" class="node">
<title>94460321125728</title>
<ellipse fill="red" stroke="black" cx="387" cy="-450" rx="27" ry="18"/>
<text text-anchor="middle" x="387" y="-445.8" font-family="Times,serif" font-size="14.00">+</text>
</g>
<!-- 94460321125664&#45;&gt;94460321125728 -->
<g id="edge20" class="edge">
<title>94460321125664&#45;&gt;94460321125728</title>
<path fill="none" stroke="black" d="M359.35,-504.76C363.71,-496.28 369.15,-485.71 374.04,-476.2"/>
<polygon fill="black" stroke="black" points="377.23,-477.64 378.7,-467.15 371.01,-474.44 377.23,-477.64"/>
</g>
<!-- 94460321125536 -->
<g id="node10" class="node">
<title>94460321125536</title>
<ellipse fill="red" stroke="black" cx="243" cy="-378" rx="27" ry="18"/>
<text text-anchor="middle" x="243" y="-373.8" font-family="Times,serif" font-size="14.00">~</text>
</g>
<!-- 94460321125600&#45;&gt;94460321125536 -->
<g id="edge15" class="edge">
<title>94460321125600&#45;&gt;94460321125536</title>
<path fill="none" stroke="black" d="M300.43,-434.83C290.25,-424.94 276.48,-411.55 264.97,-400.36"/>
<polygon fill="black" stroke="black" points="267.41,-397.85 257.8,-393.38 262.53,-402.87 267.41,-397.85"/>
</g>
<!-- 94460321125632 -->
<g id="node22" class="node">
<title>94460321125632</title>
<ellipse fill="white" stroke="black" cx="315" cy="-378" rx="27" ry="18"/>
<text text-anchor="middle" x="315" y="-373.8" font-family="Times,serif" font-size="14.00">g</text>
</g>
<!-- 94460321125600&#45;&gt;94460321125632 -->
<g id="edge16" class="edge">
<title>94460321125600&#45;&gt;94460321125632</title>
<path fill="none" stroke="black" d="M315,-431.7C315,-423.98 315,-414.71 315,-406.11"/>
<polygon fill="black" stroke="black" points="318.5,-406.1 315,-396.1 311.5,-406.1 318.5,-406.1"/>
</g>
<!-- 94460321125472 -->
<g id="node11" class="node">
<title>94460321125472</title>
<ellipse fill="red" stroke="black" cx="207" cy="-306" rx="27" ry="18"/>
<text text-anchor="middle" x="207" y="-301.8" font-family="Times,serif" font-size="14.00">~</text>
</g>
<!-- 94460321125536&#45;&gt;94460321125472 -->
<g id="edge13" class="edge">
<title>94460321125536&#45;&gt;94460321125472</title>
<path fill="none" stroke="black" d="M234.65,-360.76C230.29,-352.28 224.85,-341.71 219.96,-332.2"/>
<polygon fill="black" stroke="black" points="222.99,-330.44 215.3,-323.15 216.77,-333.64 222.99,-330.44"/>
</g>
<!-- 94460321125568 -->
<g id="node21" class="node">
<title>94460321125568</title>
<ellipse fill="white" stroke="black" cx="279" cy="-306" rx="27" ry="18"/>
<text text-anchor="middle" x="279" y="-301.8" font-family="Times,serif" font-size="14.00">f</text>
</g>
<!-- 94460321125536&#45;&gt;94460321125568 -->
<g id="edge14" class="edge">
<title>94460321125536&#45;&gt;94460321125568</title>
<path fill="none" stroke="black" d="M251.35,-360.76C255.71,-352.28 261.15,-341.71 266.04,-332.2"/>
<polygon fill="black" stroke="black" points="269.23,-333.64 270.7,-323.15 263.01,-330.44 269.23,-333.64"/>
</g>
<!-- 94460321125376 -->
<g id="node12" class="node">
<title>94460321125376</title>
<ellipse fill="red" stroke="black" cx="171" cy="-234" rx="27" ry="18"/>
<text text-anchor="middle" x="171" y="-229.8" font-family="Times,serif" font-size="14.00">~</text>
</g>
<!-- 94460321125472&#45;&gt;94460321125376 -->
<g id="edge11" class="edge">
<title>94460321125472&#45;&gt;94460321125376</title>
<path fill="none" stroke="black" d="M198.65,-288.76C194.29,-280.28 188.85,-269.71 183.96,-260.2"/>
<polygon fill="black" stroke="black" points="186.99,-258.44 179.3,-251.15 180.77,-261.64 186.99,-258.44"/>
</g>
<!-- 94460321125504 -->
<g id="node20" class="node">
<title>94460321125504</title>
<ellipse fill="white" stroke="black" cx="243" cy="-234" rx="27" ry="18"/>
<text text-anchor="middle" x="243" y="-229.8" font-family="Times,serif" font-size="14.00">e</text>
</g>
<!-- 94460321125472&#45;&gt;94460321125504 -->
<g id="edge12" class="edge">
<title>94460321125472&#45;&gt;94460321125504</title>
<path fill="none" stroke="black" d="M215.35,-288.76C219.71,-280.28 225.15,-269.71 230.04,-260.2"/>
<polygon fill="black" stroke="black" points="233.23,-261.64 234.7,-251.15 227.01,-258.44 233.23,-261.64"/>
</g>
<!-- 94460321125312 -->
<g id="node13" class="node">
<title>94460321125312</title>
<ellipse fill="red" stroke="black" cx="135" cy="-162" rx="27" ry="18"/>
<text text-anchor="middle" x="135" y="-157.8" font-family="Times,serif" font-size="14.00">~</text>
</g>
<!-- 94460321125376&#45;&gt;94460321125312 -->
<g id="edge8" class="edge">
<title>94460321125376&#45;&gt;94460321125312</title>
<path fill="none" stroke="black" d="M162.65,-216.76C158.29,-208.28 152.85,-197.71 147.96,-188.2"/>
<polygon fill="black" stroke="black" points="150.99,-186.44 143.3,-179.15 144.77,-189.64 150.99,-186.44"/>
</g>
<!-- 94460321125440 -->
<g id="node18" class="node">
<title>94460321125440</title>
<ellipse fill="red" stroke="black" cx="207" cy="-162" rx="27" ry="18"/>
<text text-anchor="middle" x="207" y="-157.8" font-family="Times,serif" font-size="14.00">*</text>
</g>
<!-- 94460321125376&#45;&gt;94460321125440 -->
<g id="edge10" class="edge">
<title>94460321125376&#45;&gt;94460321125440</title>
<path fill="none" stroke="black" d="M179.35,-216.76C183.71,-208.28 189.15,-197.71 194.04,-188.2"/>
<polygon fill="black" stroke="black" points="197.23,-189.64 198.7,-179.15 191.01,-186.44 197.23,-189.64"/>
</g>
<!-- 94460321125248 -->
<g id="node14" class="node">
<title>94460321125248</title>
<ellipse fill="red" stroke="black" cx="63" cy="-90" rx="27" ry="18"/>
<text text-anchor="middle" x="63" y="-85.8" font-family="Times,serif" font-size="14.00">~</text>
</g>
<!-- 94460321125312&#45;&gt;94460321125248 -->
<g id="edge6" class="edge">
<title>94460321125312&#45;&gt;94460321125248</title>
<path fill="none" stroke="black" d="M120.43,-146.83C110.25,-136.94 96.48,-123.55 84.97,-112.36"/>
<polygon fill="black" stroke="black" points="87.41,-109.85 77.8,-105.38 82.53,-114.87 87.41,-109.85"/>
</g>
<!-- 94460321125344 -->
<g id="node17" class="node">
<title>94460321125344</title>
<ellipse fill="white" stroke="black" cx="135" cy="-90" rx="27" ry="18"/>
<text text-anchor="middle" x="135" y="-85.8" font-family="Times,serif" font-size="14.00">d</text>
</g>
<!-- 94460321125312&#45;&gt;94460321125344 -->
<g id="edge7" class="edge">
<title>94460321125312&#45;&gt;94460321125344</title>
<path fill="none" stroke="black" d="M135,-143.7C135,-135.98 135,-126.71 135,-118.11"/>
<polygon fill="black" stroke="black" points="138.5,-118.1 135,-108.1 131.5,-118.1 138.5,-118.1"/>
</g>
<!-- 94460321125216 -->
<g id="node15" class="node">
<title>94460321125216</title>
<ellipse fill="white" stroke="black" cx="27" cy="-18" rx="27" ry="18"/>
<text text-anchor="middle" x="27" y="-13.8" font-family="Times,serif" font-size="14.00">a</text>
</g>
<!-- 94460321125248&#45;&gt;94460321125216 -->
<g id="edge4" class="edge">
<title>94460321125248&#45;&gt;94460321125216</title>
<path fill="none" stroke="black" d="M54.65,-72.76C50.29,-64.28 44.85,-53.71 39.96,-44.2"/>
<polygon fill="black" stroke="black" points="42.99,-42.44 35.3,-35.15 36.77,-45.64 42.99,-42.44"/>
</g>
<!-- 94460321125280 -->
<g id="node16" class="node">
<title>94460321125280</title>
<ellipse fill="white" stroke="black" cx="99" cy="-18" rx="27" ry="18"/>
<text text-anchor="middle" x="99" y="-13.8" font-family="Times,serif" font-size="14.00">b</text>
</g>
<!-- 94460321125248&#45;&gt;94460321125280 -->
<g id="edge5" class="edge">
<title>94460321125248&#45;&gt;94460321125280</title>
<path fill="none" stroke="black" d="M71.35,-72.76C75.71,-64.28 81.15,-53.71 86.04,-44.2"/>
<polygon fill="black" stroke="black" points="89.23,-45.64 90.7,-35.15 83.01,-42.44 89.23,-45.64"/>
</g>
<!-- 94460321125408 -->
<g id="node19" class="node">
<title>94460321125408</title>
<ellipse fill="white" stroke="black" cx="207" cy="-90" rx="27" ry="18"/>
<text text-anchor="middle" x="207" y="-85.8" font-family="Times,serif" font-size="14.00">d</text>
</g>
<!-- 94460321125440&#45;&gt;94460321125408 -->
<g id="edge9" class="edge">
<title>94460321125440&#45;&gt;94460321125408</title>
<path fill="none" stroke="black" d="M207,-143.7C207,-135.98 207,-126.71 207,-118.11"/>
<polygon fill="black" stroke="black" points="210.5,-118.1 207,-108.1 203.5,-118.1 210.5,-118.1"/>
</g>
<!-- 94460321125696 -->
<g id="node24" class="node">
<title>94460321125696</title>
<ellipse fill="white" stroke="black" cx="387" cy="-378" rx="27" ry="18"/>
<text text-anchor="middle" x="387" y="-373.8" font-family="Times,serif" font-size="14.00">h</text>
</g>
<!-- 94460321125728&#45;&gt;94460321125696 -->
<g id="edge18" class="edge">
<title>94460321125728&#45;&gt;94460321125696</title>
<path fill="none" stroke="black" d="M387,-431.7C387,-423.98 387,-414.71 387,-406.11"/>
<polygon fill="black" stroke="black" points="390.5,-406.1 387,-396.1 383.5,-406.1 390.5,-406.1"/>
</g>
<!-- 94460321125760 -->
<g id="node25" class="node">
<title>94460321125760</title>
<ellipse fill="white" stroke="black" cx="459" cy="-378" rx="27" ry="18"/>
<text text-anchor="middle" x="459" y="-373.8" font-family="Times,serif" font-size="14.00">i</text>
</g>
<!-- 94460321125728&#45;&gt;94460321125760 -->
<g id="edge19" class="edge">
<title>94460321125728&#45;&gt;94460321125760</title>
<path fill="none" stroke="black" d="M401.57,-434.83C411.75,-424.94 425.52,-411.55 437.03,-400.36"/>
<polygon fill="black" stroke="black" points="439.47,-402.87 444.2,-393.38 434.59,-397.85 439.47,-402.87"/>
</g>
</g>
</svg>
