<?xml version="1.0" encoding="UTF-8" standalone="no"?>
<!DOCTYPE svg PUBLIC "-//W3C//DTD SVG 1.1//EN"
 "http://www.w3.org/Graphics/SVG/1.1/DTD/svg11.dtd">
<!-- Generated by graphviz version 5.0.0 (20220707.1540)
 -->
<!-- Title: G Pages: 1 -->
<svg width="404pt" height="836pt"
 viewBox="0.00 0.00 404.00 836.00" xmlns="http://www.w3.org/2000/svg" xmlns:xlink="http://www.w3.org/1999/xlink">
<g id="graph0" class="graph" transform="scale(1 1) rotate(0) translate(4 832)">
<title>G</title>
<polygon fill="white" stroke="transparent" points="-4,4 -4,-832 400,-832 400,4 -4,4"/>
<!-- 94679771555072 -->
<g id="node1" class="node">
<title>94679771555072</title>
<ellipse fill="red" stroke="black" cx="135" cy="-810" rx="27" ry="18"/>
<text text-anchor="middle" x="135" y="-805.8" font-family="Times,serif" font-size="14.00">~</text>
</g>
<!-- 94679771554496 -->
<g id="node2" class="node">
<title>94679771554496</title>
<ellipse fill="red" stroke="black" cx="99" cy="-738" rx="27" ry="18"/>
<text text-anchor="middle" x="99" y="-733.8" font-family="Times,serif" font-size="14.00">+</text>
</g>
<!-- 94679771555072&#45;&gt;94679771554496 -->
<g id="edge19" class="edge">
<title>94679771555072&#45;&gt;94679771554496</title>
<path fill="none" stroke="black" d="M126.65,-792.76C122.29,-784.28 116.85,-773.71 111.96,-764.2"/>
<polygon fill="black" stroke="black" points="114.99,-762.44 107.3,-755.15 108.77,-765.64 114.99,-762.44"/>
</g>
<!-- 94679771555712 -->
<g id="node21" class="node">
<title>94679771555712</title>
<ellipse fill="red" stroke="black" cx="171" cy="-738" rx="27" ry="18"/>
<text text-anchor="middle" x="171" y="-733.8" font-family="Times,serif" font-size="14.00">*</text>
</g>
<!-- 94679771555072&#45;&gt;94679771555712 -->
<g id="edge39" class="edge">
<title>94679771555072&#45;&gt;94679771555712</title>
<path fill="none" stroke="black" d="M143.35,-792.76C147.71,-784.28 153.15,-773.71 158.04,-764.2"/>
<polygon fill="black" stroke="black" points="161.23,-765.64 162.7,-755.15 155.01,-762.44 161.23,-765.64"/>
</g>
<!-- 94679771554464 -->
<g id="node3" class="node">
<title>94679771554464</title>
<ellipse fill="white" stroke="black" cx="27" cy="-666" rx="27" ry="18"/>
<text text-anchor="middle" x="27" y="-661.8" font-family="Times,serif" font-size="14.00">0</text>
</g>
<!-- 94679771554496&#45;&gt;94679771554464 -->
<g id="edge1" class="edge">
<title>94679771554496&#45;&gt;94679771554464</title>
<path fill="none" stroke="black" d="M84.43,-722.83C74.25,-712.94 60.48,-699.55 48.97,-688.36"/>
<polygon fill="black" stroke="black" points="51.41,-685.85 41.8,-681.38 46.53,-690.87 51.41,-685.85"/>
</g>
<!-- 94679771554560 -->
<g id="node4" class="node">
<title>94679771554560</title>
<ellipse fill="red" stroke="black" cx="99" cy="-666" rx="27" ry="18"/>
<text text-anchor="middle" x="99" y="-661.8" font-family="Times,serif" font-size="14.00">+</text>
</g>
<!-- 94679771554496&#45;&gt;94679771554560 -->
<g id="edge18" class="edge">
<title>94679771554496&#45;&gt;94679771554560</title>
<path fill="none" stroke="black" d="M99,-719.7C99,-711.98 99,-702.71 99,-694.11"/>
<polygon fill="black" stroke="black" points="102.5,-694.1 99,-684.1 95.5,-694.1 102.5,-694.1"/>
</g>
<!-- 94679771554528 -->
<g id="node5" class="node">
<title>94679771554528</title>
<ellipse fill="white" stroke="black" cx="27" cy="-594" rx="27" ry="18"/>
<text text-anchor="middle" x="27" y="-589.8" font-family="Times,serif" font-size="14.00">1</text>
</g>
<!-- 94679771554560&#45;&gt;94679771554528 -->
<g id="edge2" class="edge">
<title>94679771554560&#45;&gt;94679771554528</title>
<path fill="none" stroke="black" d="M84.43,-650.83C74.25,-640.94 60.48,-627.55 48.97,-616.36"/>
<polygon fill="black" stroke="black" points="51.41,-613.85 41.8,-609.38 46.53,-618.87 51.41,-613.85"/>
</g>
<!-- 94679771554624 -->
<g id="node6" class="node">
<title>94679771554624</title>
<ellipse fill="red" stroke="black" cx="99" cy="-594" rx="27" ry="18"/>
<text text-anchor="middle" x="99" y="-589.8" font-family="Times,serif" font-size="14.00">+</text>
</g>
<!-- 94679771554560&#45;&gt;94679771554624 -->
<g id="edge17" class="edge">
<title>94679771554560&#45;&gt;94679771554624</title>
<path fill="none" stroke="black" d="M99,-647.7C99,-639.98 99,-630.71 99,-622.11"/>
<polygon fill="black" stroke="black" points="102.5,-622.1 99,-612.1 95.5,-622.1 102.5,-622.1"/>
</g>
<!-- 94679771554592 -->
<g id="node7" class="node">
<title>94679771554592</title>
<ellipse fill="white" stroke="black" cx="27" cy="-522" rx="27" ry="18"/>
<text text-anchor="middle" x="27" y="-517.8" font-family="Times,serif" font-size="14.00">2</text>
</g>
<!-- 94679771554624&#45;&gt;94679771554592 -->
<g id="edge3" class="edge">
<title>94679771554624&#45;&gt;94679771554592</title>
<path fill="none" stroke="black" d="M84.43,-578.83C74.25,-568.94 60.48,-555.55 48.97,-544.36"/>
<polygon fill="black" stroke="black" points="51.41,-541.85 41.8,-537.38 46.53,-546.87 51.41,-541.85"/>
</g>
<!-- 94679771554688 -->
<g id="node8" class="node">
<title>94679771554688</title>
<ellipse fill="red" stroke="black" cx="99" cy="-522" rx="27" ry="18"/>
<text text-anchor="middle" x="99" y="-517.8" font-family="Times,serif" font-size="14.00">+</text>
</g>
<!-- 94679771554624&#45;&gt;94679771554688 -->
<g id="edge16" class="edge">
<title>94679771554624&#45;&gt;94679771554688</title>
<path fill="none" stroke="black" d="M99,-575.7C99,-567.98 99,-558.71 99,-550.11"/>
<polygon fill="black" stroke="black" points="102.5,-550.1 99,-540.1 95.5,-550.1 102.5,-550.1"/>
</g>
<!-- 94679771554656 -->
<g id="node9" class="node">
<title>94679771554656</title>
<ellipse fill="white" stroke="black" cx="27" cy="-450" rx="27" ry="18"/>
<text text-anchor="middle" x="27" y="-445.8" font-family="Times,serif" font-size="14.00">3</text>
</g>
<!-- 94679771554688&#45;&gt;94679771554656 -->
<g id="edge4" class="edge">
<title>94679771554688&#45;&gt;94679771554656</title>
<path fill="none" stroke="black" d="M84.43,-506.83C74.25,-496.94 60.48,-483.55 48.97,-472.36"/>
<polygon fill="black" stroke="black" points="51.41,-469.85 41.8,-465.38 46.53,-474.87 51.41,-469.85"/>
</g>
<!-- 94679771554752 -->
<g id="node10" class="node">
<title>94679771554752</title>
<ellipse fill="red" stroke="black" cx="99" cy="-450" rx="27" ry="18"/>
<text text-anchor="middle" x="99" y="-445.8" font-family="Times,serif" font-size="14.00">+</text>
</g>
<!-- 94679771554688&#45;&gt;94679771554752 -->
<g id="edge15" class="edge">
<title>94679771554688&#45;&gt;94679771554752</title>
<path fill="none" stroke="black" d="M99,-503.7C99,-495.98 99,-486.71 99,-478.11"/>
<polygon fill="black" stroke="black" points="102.5,-478.1 99,-468.1 95.5,-478.1 102.5,-478.1"/>
</g>
<!-- 94679771554720 -->
<g id="node11" class="node">
<title>94679771554720</title>
<ellipse fill="white" stroke="black" cx="27" cy="-378" rx="27" ry="18"/>
<text text-anchor="middle" x="27" y="-373.8" font-family="Times,serif" font-size="14.00">4</text>
</g>
<!-- 94679771554752&#45;&gt;94679771554720 -->
<g id="edge5" class="edge">
<title>94679771554752&#45;&gt;94679771554720</title>
<path fill="none" stroke="black" d="M84.43,-434.83C74.25,-424.94 60.48,-411.55 48.97,-400.36"/>
<polygon fill="black" stroke="black" points="51.41,-397.85 41.8,-393.38 46.53,-402.87 51.41,-397.85"/>
</g>
<!-- 94679771554816 -->
<g id="node12" class="node">
<title>94679771554816</title>
<ellipse fill="red" stroke="black" cx="99" cy="-378" rx="27" ry="18"/>
<text text-anchor="middle" x="99" y="-373.8" font-family="Times,serif" font-size="14.00">+</text>
</g>
<!-- 94679771554752&#45;&gt;94679771554816 -->
<g id="edge14" class="edge">
<title>94679771554752&#45;&gt;94679771554816</title>
<path fill="none" stroke="black" d="M99,-431.7C99,-423.98 99,-414.71 99,-406.11"/>
<polygon fill="black" stroke="black" points="102.5,-406.1 99,-396.1 95.5,-406.1 102.5,-406.1"/>
</g>
<!-- 94679771554784 -->
<g id="node13" class="node">
<title>94679771554784</title>
<ellipse fill="white" stroke="black" cx="27" cy="-306" rx="27" ry="18"/>
<text text-anchor="middle" x="27" y="-301.8" font-family="Times,serif" font-size="14.00">5</text>
</g>
<!-- 94679771554816&#45;&gt;94679771554784 -->
<g id="edge6" class="edge">
<title>94679771554816&#45;&gt;94679771554784</title>
<path fill="none" stroke="black" d="M84.43,-362.83C74.25,-352.94 60.48,-339.55 48.97,-328.36"/>
<polygon fill="black" stroke="black" points="51.41,-325.85 41.8,-321.38 46.53,-330.87 51.41,-325.85"/>
</g>
<!-- 94679771554880 -->
<g id="node14" class="node">
<title>94679771554880</title>
<ellipse fill="red" stroke="black" cx="99" cy="-306" rx="27" ry="18"/>
<text text-anchor="middle" x="99" y="-301.8" font-family="Times,serif" font-size="14.00">+</text>
</g>
<!-- 94679771554816&#45;&gt;94679771554880 -->
<g id="edge13" class="edge">
<title>94679771554816&#45;&gt;94679771554880</title>
<path fill="none" stroke="black" d="M99,-359.7C99,-351.98 99,-342.71 99,-334.11"/>
<polygon fill="black" stroke="black" points="102.5,-334.1 99,-324.1 95.5,-334.1 102.5,-334.1"/>
</g>
<!-- 94679771554848 -->
<g id="node15" class="node">
<title>94679771554848</title>
<ellipse fill="white" stroke="black" cx="27" cy="-234" rx="27" ry="18"/>
<text text-anchor="middle" x="27" y="-229.8" font-family="Times,serif" font-size="14.00">6</text>
</g>
<!-- 94679771554880&#45;&gt;94679771554848 -->
<g id="edge7" class="edge">
<title>94679771554880&#45;&gt;94679771554848</title>
<path fill="none" stroke="black" d="M84.43,-290.83C74.25,-280.94 60.48,-267.55 48.97,-256.36"/>
<polygon fill="black" stroke="black" points="51.41,-253.85 41.8,-249.38 46.53,-258.87 51.41,-253.85"/>
</g>
<!-- 94679771554944 -->
<g id="node16" class="node">
<title>94679771554944</title>
<ellipse fill="red" stroke="black" cx="99" cy="-234" rx="27" ry="18"/>
<text text-anchor="middle" x="99" y="-229.8" font-family="Times,serif" font-size="14.00">+</text>
</g>
<!-- 94679771554880&#45;&gt;94679771554944 -->
<g id="edge12" class="edge">
<title>94679771554880&#45;&gt;94679771554944</title>
<path fill="none" stroke="black" d="M99,-287.7C99,-279.98 99,-270.71 99,-262.11"/>
<polygon fill="black" stroke="black" points="102.5,-262.1 99,-252.1 95.5,-262.1 102.5,-262.1"/>
</g>
<!-- 94679771554912 -->
<g id="node17" class="node">
<title>94679771554912</title>
<ellipse fill="white" stroke="black" cx="63" cy="-162" rx="27" ry="18"/>
<text text-anchor="middle" x="63" y="-157.8" font-family="Times,serif" font-size="14.00">7</text>
</g>
<!-- 94679771554944&#45;&gt;94679771554912 -->
<g id="edge8" class="edge">
<title>94679771554944&#45;&gt;94679771554912</title>
<path fill="none" stroke="black" d="M90.65,-216.76C86.29,-208.28 80.85,-197.71 75.96,-188.2"/>
<polygon fill="black" stroke="black" points="78.99,-186.44 71.3,-179.15 72.77,-189.64 78.99,-186.44"/>
</g>
<!-- 94679771555008 -->
<g id="node18" class="node">
<title>94679771555008</title>
<ellipse fill="red" stroke="black" cx="135" cy="-162" rx="27" ry="18"/>
<text text-anchor="middle" x="135" y="-157.8" font-family="Times,serif" font-size="14.00">+</text>
</g>
<!-- 94679771554944&#45;&gt;94679771555008 -->
<g id="edge11" class="edge">
<title>94679771554944&#45;&gt;94679771555008</title>
<path fill="none" stroke="black" d="M107.35,-216.76C111.71,-208.28 117.15,-197.71 122.04,-188.2"/>
<polygon fill="black" stroke="black" points="125.23,-189.64 126.7,-179.15 119.01,-186.44 125.23,-189.64"/>
</g>
<!-- 94679771554976 -->
<g id="node19" class="node">
<title>94679771554976</title>
<ellipse fill="white" stroke="black" cx="99" cy="-90" rx="27" ry="18"/>
<text text-anchor="middle" x="99" y="-85.8" font-family="Times,serif" font-size="14.00">8</text>
</g>
<!-- 94679771555008&#45;&gt;94679771554976 -->
<g id="edge9" class="edge">
<title>94679771555008&#45;&gt;94679771554976</title>
<path fill="none" stroke="black" d="M126.65,-144.76C122.29,-136.28 116.85,-125.71 111.96,-116.2"/>
<polygon fill="black" stroke="black" points="114.99,-114.44 107.3,-107.15 108.77,-117.64 114.99,-114.44"/>
</g>
<!-- 94679771555040 -->
<g id="node20" class="node">
<title>94679771555040</title>
<ellipse fill="white" stroke="black" cx="171" cy="-90" rx="27" ry="18"/>
<text text-anchor="middle" x="171" y="-85.8" font-family="Times,serif" font-size="14.00">9</text>
</g>
<!-- 94679771555008&#45;&gt;94679771555040 -->
<g id="edge10" class="edge">
<title>94679771555008&#45;&gt;94679771555040</title>
<path fill="none" stroke="black" d="M143.35,-144.76C147.71,-136.28 153.15,-125.71 158.04,-116.2"/>
<polygon fill="black" stroke="black" points="161.23,-117.64 162.7,-107.15 155.01,-114.44 161.23,-117.64"/>
</g>
<!-- 94679771555136 -->
<g id="node22" class="node">
<title>94679771555136</title>
<ellipse fill="red" stroke="black" cx="171" cy="-666" rx="27" ry="18"/>
<text text-anchor="middle" x="171" y="-661.8" font-family="Times,serif" font-size="14.00">+</text>
</g>
<!-- 94679771555712&#45;&gt;94679771555136 -->
<g id="edge38" class="edge">
<title>94679771555712&#45;&gt;94679771555136</title>
<path fill="none" stroke="black" d="M171,-719.7C171,-711.98 171,-702.71 171,-694.11"/>
<polygon fill="black" stroke="black" points="174.5,-694.1 171,-684.1 167.5,-694.1 174.5,-694.1"/>
</g>
<!-- 94679771555104 -->
<g id="node23" class="node">
<title>94679771555104</title>
<ellipse fill="white" stroke="black" cx="171" cy="-594" rx="27" ry="18"/>
<text text-anchor="middle" x="171" y="-589.8" font-family="Times,serif" font-size="14.00">0</text>
</g>
<!-- 94679771555136&#45;&gt;94679771555104 -->
<g id="edge20" class="edge">
<title>94679771555136&#45;&gt;94679771555104</title>
<path fill="none" stroke="black" d="M171,-647.7C171,-639.98 171,-630.71 171,-622.11"/>
<polygon fill="black" stroke="black" points="174.5,-622.1 171,-612.1 167.5,-622.1 174.5,-622.1"/>
</g>
<!-- 94679771555200 -->
<g id="node24" class="node">
<title>94679771555200</title>
<ellipse fill="red" stroke="black" cx="243" cy="-594" rx="27" ry="18"/>
<text text-anchor="middle" x="243" y="-589.8" font-family="Times,serif" font-size="14.00">+</text>
</g>
<!-- 94679771555136&#45;&gt;94679771555200 -->
<g id="edge37" class="edge">
<title>94679771555136&#45;&gt;94679771555200</title>
<path fill="none" stroke="black" d="M185.57,-650.83C195.75,-640.94 209.52,-627.55 221.03,-616.36"/>
<polygon fill="black" stroke="black" points="223.47,-618.87 228.2,-609.38 218.59,-613.85 223.47,-618.87"/>
</g>
<!-- 94679771555168 -->
<g id="node25" class="node">
<title>94679771555168</title>
<ellipse fill="white" stroke="black" cx="189" cy="-522" rx="27" ry="18"/>
<text text-anchor="middle" x="189" y="-517.8" font-family="Times,serif" font-size="14.00">1</text>
</g>
<!-- 94679771555200&#45;&gt;94679771555168 -->
<g id="edge21" class="edge">
<title>94679771555200&#45;&gt;94679771555168</title>
<path fill="none" stroke="black" d="M231.02,-577.46C224.02,-568.4 215.06,-556.79 207.21,-546.61"/>
<polygon fill="black" stroke="black" points="209.83,-544.27 200.95,-538.49 204.29,-548.55 209.83,-544.27"/>
</g>
<!-- 94679771555264 -->
<g id="node26" class="node">
<title>94679771555264</title>
<ellipse fill="red" stroke="black" cx="261" cy="-522" rx="27" ry="18"/>
<text text-anchor="middle" x="261" y="-517.8" font-family="Times,serif" font-size="14.00">+</text>
</g>
<!-- 94679771555200&#45;&gt;94679771555264 -->
<g id="edge36" class="edge">
<title>94679771555200&#45;&gt;94679771555264</title>
<path fill="none" stroke="black" d="M247.36,-576.05C249.39,-568.14 251.86,-558.54 254.14,-549.69"/>
<polygon fill="black" stroke="black" points="257.58,-550.35 256.68,-539.79 250.8,-548.6 257.58,-550.35"/>
</g>
<!-- 94679771555232 -->
<g id="node27" class="node">
<title>94679771555232</title>
<ellipse fill="white" stroke="black" cx="198" cy="-450" rx="27" ry="18"/>
<text text-anchor="middle" x="198" y="-445.8" font-family="Times,serif" font-size="14.00">2</text>
</g>
<!-- 94679771555264&#45;&gt;94679771555232 -->
<g id="edge22" class="edge">
<title>94679771555264&#45;&gt;94679771555232</title>
<path fill="none" stroke="black" d="M247.64,-506.15C239.12,-496.69 227.91,-484.24 218.31,-473.56"/>
<polygon fill="black" stroke="black" points="220.63,-470.92 211.34,-465.82 215.43,-475.6 220.63,-470.92"/>
</g>
<!-- 94679771555328 -->
<g id="node28" class="node">
<title>94679771555328</title>
<ellipse fill="red" stroke="black" cx="270" cy="-450" rx="27" ry="18"/>
<text text-anchor="middle" x="270" y="-445.8" font-family="Times,serif" font-size="14.00">+</text>
</g>
<!-- 94679771555264&#45;&gt;94679771555328 -->
<g id="edge35" class="edge">
<title>94679771555264&#45;&gt;94679771555328</title>
<path fill="none" stroke="black" d="M263.18,-504.05C264.17,-496.35 265.37,-487.03 266.48,-478.36"/>
<polygon fill="black" stroke="black" points="269.98,-478.64 267.78,-468.28 263.03,-477.75 269.98,-478.64"/>
</g>
<!-- 94679771555296 -->
<g id="node29" class="node">
<title>94679771555296</title>
<ellipse fill="white" stroke="black" cx="202" cy="-378" rx="27" ry="18"/>
<text text-anchor="middle" x="202" y="-373.8" font-family="Times,serif" font-size="14.00">3</text>
</g>
<!-- 94679771555328&#45;&gt;94679771555296 -->
<g id="edge23" class="edge">
<title>94679771555328&#45;&gt;94679771555296</title>
<path fill="none" stroke="black" d="M255.91,-434.5C246.43,-424.73 233.76,-411.69 223.08,-400.7"/>
<polygon fill="black" stroke="black" points="225.55,-398.22 216.07,-393.49 220.53,-403.1 225.55,-398.22"/>
</g>
<!-- 94679771555392 -->
<g id="node30" class="node">
<title>94679771555392</title>
<ellipse fill="red" stroke="black" cx="274" cy="-378" rx="27" ry="18"/>
<text text-anchor="middle" x="274" y="-373.8" font-family="Times,serif" font-size="14.00">+</text>
</g>
<!-- 94679771555328&#45;&gt;94679771555392 -->
<g id="edge34" class="edge">
<title>94679771555328&#45;&gt;94679771555392</title>
<path fill="none" stroke="black" d="M270.99,-431.7C271.43,-423.98 271.96,-414.71 272.45,-406.11"/>
<polygon fill="black" stroke="black" points="275.95,-406.29 273.02,-396.1 268.96,-405.89 275.95,-406.29"/>
</g>
<!-- 94679771555360 -->
<g id="node31" class="node">
<title>94679771555360</title>
<ellipse fill="white" stroke="black" cx="204" cy="-306" rx="27" ry="18"/>
<text text-anchor="middle" x="204" y="-301.8" font-family="Times,serif" font-size="14.00">4</text>
</g>
<!-- 94679771555392&#45;&gt;94679771555360 -->
<g id="edge24" class="edge">
<title>94679771555392&#45;&gt;94679771555360</title>
<path fill="none" stroke="black" d="M259.5,-362.5C249.73,-352.73 236.69,-339.69 225.7,-328.7"/>
<polygon fill="black" stroke="black" points="228.03,-326.08 218.49,-321.49 223.08,-331.03 228.03,-326.08"/>
</g>
<!-- 94679771555456 -->
<g id="node32" class="node">
<title>94679771555456</title>
<ellipse fill="red" stroke="black" cx="276" cy="-306" rx="27" ry="18"/>
<text text-anchor="middle" x="276" y="-301.8" font-family="Times,serif" font-size="14.00">+</text>
</g>
<!-- 94679771555392&#45;&gt;94679771555456 -->
<g id="edge33" class="edge">
<title>94679771555392&#45;&gt;94679771555456</title>
<path fill="none" stroke="black" d="M274.49,-359.7C274.71,-351.98 274.98,-342.71 275.23,-334.11"/>
<polygon fill="black" stroke="black" points="278.72,-334.2 275.51,-324.1 271.73,-334 278.72,-334.2"/>
</g>
<!-- 94679771555424 -->
<g id="node33" class="node">
<title>94679771555424</title>
<ellipse fill="white" stroke="black" cx="205" cy="-234" rx="27" ry="18"/>
<text text-anchor="middle" x="205" y="-229.8" font-family="Times,serif" font-size="14.00">5</text>
</g>
<!-- 94679771555456&#45;&gt;94679771555424 -->
<g id="edge25" class="edge">
<title>94679771555456&#45;&gt;94679771555424</title>
<path fill="none" stroke="black" d="M261.29,-290.5C251.39,-280.73 238.16,-267.69 227.01,-256.7"/>
<polygon fill="black" stroke="black" points="229.27,-254.01 219.69,-249.49 224.36,-259 229.27,-254.01"/>
</g>
<!-- 94679771555520 -->
<g id="node34" class="node">
<title>94679771555520</title>
<ellipse fill="red" stroke="black" cx="277" cy="-234" rx="27" ry="18"/>
<text text-anchor="middle" x="277" y="-229.8" font-family="Times,serif" font-size="14.00">+</text>
</g>
<!-- 94679771555456&#45;&gt;94679771555520 -->
<g id="edge32" class="edge">
<title>94679771555456&#45;&gt;94679771555520</title>
<path fill="none" stroke="black" d="M276.25,-287.7C276.36,-279.98 276.49,-270.71 276.61,-262.11"/>
<polygon fill="black" stroke="black" points="280.11,-262.15 276.76,-252.1 273.11,-262.05 280.11,-262.15"/>
</g>
<!-- 94679771555488 -->
<g id="node35" class="node">
<title>94679771555488</title>
<ellipse fill="white" stroke="black" cx="207" cy="-162" rx="27" ry="18"/>
<text text-anchor="middle" x="207" y="-157.8" font-family="Times,serif" font-size="14.00">6</text>
</g>
<!-- 94679771555520&#45;&gt;94679771555488 -->
<g id="edge26" class="edge">
<title>94679771555520&#45;&gt;94679771555488</title>
<path fill="none" stroke="black" d="M262.5,-218.5C252.73,-208.73 239.69,-195.69 228.7,-184.7"/>
<polygon fill="black" stroke="black" points="231.03,-182.08 221.49,-177.49 226.08,-187.03 231.03,-182.08"/>
</g>
<!-- 94679771555584 -->
<g id="node36" class="node">
<title>94679771555584</title>
<ellipse fill="red" stroke="black" cx="279" cy="-162" rx="27" ry="18"/>
<text text-anchor="middle" x="279" y="-157.8" font-family="Times,serif" font-size="14.00">+</text>
</g>
<!-- 94679771555520&#45;&gt;94679771555584 -->
<g id="edge31" class="edge">
<title>94679771555520&#45;&gt;94679771555584</title>
<path fill="none" stroke="black" d="M277.49,-215.7C277.71,-207.98 277.98,-198.71 278.23,-190.11"/>
<polygon fill="black" stroke="black" points="281.72,-190.2 278.51,-180.1 274.73,-190 281.72,-190.2"/>
</g>
<!-- 94679771555552 -->
<g id="node37" class="node">
<title>94679771555552</title>
<ellipse fill="white" stroke="black" cx="261" cy="-90" rx="27" ry="18"/>
<text text-anchor="middle" x="261" y="-85.8" font-family="Times,serif" font-size="14.00">7</text>
</g>
<!-- 94679771555584&#45;&gt;94679771555552 -->
<g id="edge27" class="edge">
<title>94679771555584&#45;&gt;94679771555552</title>
<path fill="none" stroke="black" d="M274.64,-144.05C272.61,-136.14 270.14,-126.54 267.86,-117.69"/>
<polygon fill="black" stroke="black" points="271.2,-116.6 265.32,-107.79 264.42,-118.35 271.2,-116.6"/>
</g>
<!-- 94679771555648 -->
<g id="node38" class="node">
<title>94679771555648</title>
<ellipse fill="red" stroke="black" cx="333" cy="-90" rx="27" ry="18"/>
<text text-anchor="middle" x="333" y="-85.8" font-family="Times,serif" font-size="14.00">+</text>
</g>
<!-- 94679771555584&#45;&gt;94679771555648 -->
<g id="edge30" class="edge">
<title>94679771555584&#45;&gt;94679771555648</title>
<path fill="none" stroke="black" d="M290.98,-145.46C297.98,-136.4 306.94,-124.79 314.79,-114.61"/>
<polygon fill="black" stroke="black" points="317.71,-116.55 321.05,-106.49 312.17,-112.27 317.71,-116.55"/>
</g>
<!-- 94679771555616 -->
<g id="node39" class="node">
<title>94679771555616</title>
<ellipse fill="white" stroke="black" cx="297" cy="-18" rx="27" ry="18"/>
<text text-anchor="middle" x="297" y="-13.8" font-family="Times,serif" font-size="14.00">8</text>
</g>
<!-- 94679771555648&#45;&gt;94679771555616 -->
<g id="edge28" class="edge">
<title>94679771555648&#45;&gt;94679771555616</title>
<path fill="none" stroke="black" d="M324.65,-72.76C320.29,-64.28 314.85,-53.71 309.96,-44.2"/>
<polygon fill="black" stroke="black" points="312.99,-42.44 305.3,-35.15 306.77,-45.64 312.99,-42.44"/>
</g>
<!-- 94679771555680 -->
<g id="node40" class="node">
<title>94679771555680</title>
<ellipse fill="white" stroke="black" cx="369" cy="-18" rx="27" ry="18"/>
<text text-anchor="middle" x="369" y="-13.8" font-family="Times,serif" font-size="14.00">9</text>
</g>
<!-- 94679771555648&#45;&gt;94679771555680 -->
<g id="edge29" class="edge">
<title>94679771555648&#45;&gt;94679771555680</title>
<path fill="none" stroke="black" d="M341.35,-72.76C345.71,-64.28 351.15,-53.71 356.04,-44.2"/>
<polygon fill="black" stroke="black" points="359.23,-45.64 360.7,-35.15 353.01,-42.44 359.23,-45.64"/>
</g>
</g>
</svg>
